# xmcd
#
# Track frame offsets:
#	150
#	25090
#	49890
#	70197
#	87477
#	106815
#	132162
#	155945
#	175975
#	192767
#	203737
#	219687
#	231397
#	251617
#	271827
#	292125
#	310072
#
# Disc length: 4377
#
# Revision: 3
# Processed by: cddbd v1.5.1PL0 Copyright (c) Steve Scherf et al.
# Submitted via: EasyCDDAExtractor 5.1.0
# Normalized: r2:DSETVAR1
#
DISCID=00111711
DTITLE=Various Artist - The Blues
DYEAR=1900
DGENRE=Blues
TTITLE0=Gary Moore - Still got the blues
TTITLE1=Jeff Healey Band - I think I love you too much
TTITLE2=Dr. Feelgood - (I wanna) Make love to you
TTITLE3=Robert Cary and Albert Collins - She's into something
TTITLE4=Colin James - Just came back
TTITLE5=John Lee Hooker and Santana - The healer
TTITLE6=John Mayall - Sensitive kind
TTITLE7=Etta James - I've got dreams to remember
TTITLE8=Rory Gallagher - The king of Zydeco
TTITLE9=Leon Redbone - So, relax
TTITLE10=Tinsley Ellis - Loneliness is here to stay
TTITLE11=J.J. Cale - Shanghaid
TTITLE12=Omar And The Howlers - Monkey land
TTITLE13=Lonne Mack and Stevie Ray Vaughan - If you have to know
TTITLE14=John Lee Hooker and Bonnie Raitt - I'm in the mood
TTITLE15=Delbert McClinton - I want to love you
TTITLE16=The Paladins - Keep on lovin' me baby
EXTD=
EXTT0=
EXTT1=
EXTT2=
EXTT3=
EXTT4=
EXTT5=
EXTT6=
EXTT7=
EXTT8=
EXTT9=
EXTT10=
EXTT11=
EXTT12=
EXTT13=
EXTT14=
EXTT15=
EXTT16=
PLAYORDER=
